<svg id="kity_svg_6" xmlns="http://www.w3.org/2000/svg" xmlns:xlink="http://www.w3.org/1999/xlink" version="1.1" width="1013" height="699" style="background: rgb(251, 251, 251); visibility: visible;" viewBox="0 0 1013 699"><defs id="kity_defs_7"><linearGradient id="kity_linearGradient_17" x1="0" y1="0" x2="0" y2="1"><stop id="kity_stop_18" offset="0" stop-color="rgb(255, 255, 255)"></stop><stop id="kity_stop_19" offset="1" stop-color="rgb(204, 204, 204)"></stop></linearGradient><marker id="kity_marker_4" orient="auto" refX="6" refY="0" viewBox="-7 -7 14 14" markerWidth="7" markerHeight="7" markerUnits="userSpaceOnUse"><path id="kity_path_5" fill="rgb(115, 161, 191)" stroke="none" d="M6,0A6,6,0,1,1,-6,0A6,6,0,1,1,6,0"></path></marker><marker id="kity_marker_2" orient="auto" refX="6" refY="0" viewBox="-7 -7 14 14" markerWidth="7" markerHeight="7" markerUnits="userSpaceOnUse"><path id="kity_path_3" fill="rgb(191, 115, 115)" stroke="none" d="M6,0A6,6,0,1,1,-6,0A6,6,0,1,1,6,0"></path></marker></defs><g id="kity_g_8"><g id="minder1" text-rendering="geometricPrecision"><g id="minder_connect_group1"><path id="kity_path_31" fill="none" stroke="rgb(191, 115, 115)" stroke-width="1" d="M444.50001634657383,361.50000758469105A201,174,0,0,1,645.5000163465738,187.50000758469105"></path><path id="kity_path_39" fill="none" stroke="rgb(191, 115, 115)" stroke-width="1" d="M444.50001634657383,361.50000758469105A201,174,0,0,0,645.5000163465738,535.500007584691"></path><path id="kity_path_47" fill="none" stroke="rgb(191, 115, 115)" stroke-width="1" d="M444.50001634657383,361.50000758469105A201,0,0,0,1,243.50001634657383,361.50000758469105"></path><path id="kity_path_55" fill="none" stroke="rgb(191, 115, 115)" stroke-width="1" d="M726.5000163465738,187.50000758469105C741.5000163465738,187.50000758469105,741.5000163465738,45.50000758469105,756.5000163465738,45.50000758469105L839.5000163465738,45.50000758469105"></path><path id="kity_path_63" fill="none" stroke="rgb(191, 115, 115)" stroke-width="1" d="M726.5000163465738,187.50000758469105C741.5000163465738,187.50000758469105,741.5000163465738,97.50000758469105,756.5000163465738,97.50000758469105L993.5000163465738,97.50000758469105"></path><path id="kity_path_71" fill="none" stroke="rgb(191, 115, 115)" stroke-width="1" d="M726.5000163465738,187.50000758469105C741.5000163465738,187.50000758469105,741.5000163465738,149.50000758469105,756.5000163465738,149.50000758469105L938.5000163465738,149.50000758469105"></path><path id="kity_path_86" fill="none" stroke="rgb(191, 115, 115)" stroke-width="1" d="M726.5000163465738,187.50000758469105C741.5000163465738,187.50000758469105,741.5000163465738,201.50000758469105,756.5000163465738,201.50000758469105L865.5000163465738,201.50000758469105"></path><path id="kity_path_102" fill="none" stroke="rgb(191, 115, 115)" stroke-width="1" d="M726.5000163465738,187.50000758469105C741.5000163465738,187.50000758469105,741.5000163465738,253.50000758469105,756.5000163465738,253.50000758469105L896.5000163465738,253.50000758469105"></path><path id="kity_path_110" fill="none" stroke="rgb(191, 115, 115)" stroke-width="1" d="M726.5000163465738,187.50000758469105C741.5000163465738,187.50000758469105,741.5000163465738,305.50000758469105,756.5000163465738,305.50000758469105L943.5000163465738,305.50000758469105"></path><path id="kity_path_118" fill="none" stroke="rgb(191, 115, 115)" stroke-width="1" d="M726.5000163465738,187.50000758469105C741.5000163465738,187.50000758469105,741.5000163465738,357.50000758469105,756.5000163465738,357.50000758469105L901.5000163465738,357.50000758469105"></path><path id="kity_path_126" fill="none" stroke="rgb(191, 115, 115)" stroke-width="1" d="M716.5000163465738,535.500007584691C731.5000163465738,535.500007584691,731.5000163465738,419.50000758469105,746.5000163465738,419.50000758469105L920.5000163465738,419.50000758469105"></path><path id="kity_path_134" fill="none" stroke="rgb(191, 115, 115)" stroke-width="1" d="M716.5000163465738,535.500007584691C731.5000163465738,535.500007584691,731.5000163465738,471.50000758469105,746.5000163465738,471.50000758469105L928.5000163465738,471.50000758469105"></path><path id="kity_path_142" fill="none" stroke="rgb(191, 115, 115)" stroke-width="1" d="M716.5000163465738,535.500007584691C731.5000163465738,535.500007584691,731.5000163465738,523.500007584691,746.5000163465738,523.500007584691L916.5000163465738,523.500007584691"></path><path id="kity_path_150" fill="none" stroke="rgb(191, 115, 115)" stroke-width="1" d="M716.5000163465738,535.500007584691C731.5000163465738,535.500007584691,731.5000163465738,575.500007584691,746.5000163465738,575.500007584691L969.5000163465738,575.500007584691"></path><path id="kity_path_158" fill="none" stroke="rgb(191, 115, 115)" stroke-width="1" d="M716.5000163465738,535.500007584691C731.5000163465738,535.500007584691,731.5000163465738,627.500007584691,746.5000163465738,627.500007584691L929.5000163465738,627.500007584691"></path><path id="kity_path_166" fill="none" stroke="rgb(191, 115, 115)" stroke-width="1" d="M716.5000163465738,535.500007584691C731.5000163465738,535.500007584691,731.5000163465738,679.500007584691,746.5000163465738,679.500007584691L883.5000163465738,679.500007584691"></path><path id="kity_path_185" fill="none" stroke="rgb(191, 115, 115)" stroke-width="1" d="M170.50001634657383,361.50000758469105C155.50001634657383,361.50000758469105,155.50001634657383,349.50000758469105,140.50001634657383,349.50000758469105L20.50001634657383,349.50000758469105"></path><path id="kity_path_193" fill="none" stroke="rgb(191, 115, 115)" stroke-width="1" d="M170.50001634657383,361.50000758469105C155.50001634657383,361.50000758469105,155.50001634657383,401.50000758469105,140.50001634657383,401.50000758469105L30.50001634657383,401.50000758469105"></path></g><g id="minder_node1"><path id="kity_path_81" fill="rgba(0, 0, 0, .25)" stroke="none" d="M481.00001634657383,251.00000758469105h0a116,116,0,0,1,116,116v0a116,116,0,0,1,-116,116h0a116,116,0,0,1,-116,-116v0a116,116,0,0,1,116,-116z" display="none"></path><path id="node_outline1" fill="rgb(191, 115, 115)" stroke="rgb(191, 115, 115)" d="M366.50001634657383,341.50000758469105h156a5,5,0,0,1,5,5v30a5,5,0,0,1,-5,5h-156a5,5,0,0,1,-5,-5v-30a5,5,0,0,1,5,-5z" stroke-width="3"></path><g id="node_text1" fill="white"><text id="kity_text_22" text-rendering="inherit" font-size="16" dy=".8em" y="353.50000758469105" x="385.50001634657383">Abstract algebra</text></g></g><g id="kity_g_12" display="none"><path id="kity_path_13" fill="none" stroke="none" d="M385.50001634657383,361.50000758469105h0v0h0z"></path></g><g id="kity_g_14" display="none"><path id="kity_path_15" fill="none" stroke="none" d="M385.50001634657383,361.50000758469105h0v0h0z"></path><path id="kity_path_16" fill="none" stroke="none"></path></g><g id="minder_node2"><path id="kity_path_78" fill="rgba(0, 0, 0, .25)" stroke="none" d="M692.5000247508287,154.00000239908695h0a38,38,0,0,1,38,38v0a38,38,0,0,1,-38,38h0a38,38,0,0,1,-38,-38v0a38,38,0,0,1,38,-38z" display="none"></path><g id="node_expander1" style="cursor: pointer;"><path id="kity_path_36" fill="white" stroke="gray" d="M646.500023946166,187.50000239908695A6,6,0,1,1,634.500023946166,187.50000239908695A6,6,0,1,1,646.500023946166,187.50000239908695"></path><path id="kity_path_37" fill="none" stroke="gray" d="M636.000023946166,187.50000239908695L645.000023946166,187.50000239908695"></path></g><path id="node_outline2" fill="rgb(246, 238, 238)" stroke="rgb(191, 115, 115)" d="M650.5000247508287,174.50000239908695h73a3,3,0,0,1,3,3v20a3,3,0,0,1,-3,3h-73a3,3,0,0,1,-3,-3v-20a3,3,0,0,1,3,-3z" stroke-width="1"></path><g id="node_text2" fill="black"><text id="kity_text_33" text-rendering="inherit" font-size="14" dy=".8em" y="180.50000239908695" x="667.5000247508287">Group</text></g></g><g id="minder_node3" opacity="1"><path id="kity_path_79" fill="rgba(0, 0, 0, .25)" stroke="none" d="M687.0000247508287,506.00001277029514h0a34,34,0,0,1,34,34v0a34,34,0,0,1,-34,34h0a34,34,0,0,1,-34,-34v0a34,34,0,0,1,34,-34z" display="none"></path><g id="node_expander2" style="cursor: pointer;"><path id="kity_path_44" fill="white" stroke="gray" d="M646.500023946166,535.5000127702951A6,6,0,1,1,634.500023946166,535.5000127702951A6,6,0,1,1,646.500023946166,535.5000127702951"></path><path id="kity_path_45" fill="none" stroke="gray" d="M636.000023946166,535.5000127702951L645.000023946166,535.5000127702951"></path></g><path id="node_outline3" fill="rgb(246, 238, 238)" stroke="rgb(191, 115, 115)" d="M650.5000247508287,522.5000127702951h63a3,3,0,0,1,3,3v20a3,3,0,0,1,-3,3h-63a3,3,0,0,1,-3,-3v-20a3,3,0,0,1,3,-3z" stroke-width="1"></path><g id="node_text3" fill="black"><text id="kity_text_41" text-rendering="inherit" font-size="14" dy=".8em" y="528.5000127702951" x="667.5000247508287">Ring</text></g></g><g id="minder_node4"><path id="kity_path_80" fill="rgba(0, 0, 0, .25)" stroke="none" d="M211.00001053512096,331.00000758469105h0a35,35,0,0,1,35,35v0a35,35,0,0,1,-35,35h0a35,35,0,0,1,-35,-35v0a35,35,0,0,1,35,-35z" display="none"></path><g id="node_expander3" style="cursor: pointer;"><path id="kity_path_52" fill="white" stroke="gray" d="M254.50001226365566,361.50000758469105A6,6,0,1,1,242.50001226365566,361.50000758469105A6,6,0,1,1,254.50001226365566,361.50000758469105"></path><path id="kity_path_53" fill="none" stroke="gray" d="M244.00001226365566,361.50000758469105L253.00001226365566,361.50000758469105"></path></g><path id="node_outline4" fill="rgb(246, 238, 238)" stroke="rgb(191, 115, 115)" d="M173.50001053512096,348.50000758469105h65a3,3,0,0,1,3,3v20a3,3,0,0,1,-3,3h-65a3,3,0,0,1,-3,-3v-20a3,3,0,0,1,3,-3z" stroke-width="1"></path><g id="node_text4" fill="black"><text id="kity_text_49" text-rendering="inherit" font-size="14" dy=".8em" y="354.50000758469105" x="190.50001053512096">Field</text></g><g id="node_progress1" display="none"><path id="kity_path_174" fill="#FFED83" stroke="none" d="M185.0000101029873,362.0000075995922A9,9,0,1,1,167.0000101029873,362.0000075995922A9,9,0,1,1,185.0000101029873,362.0000075995922"></path><path id="kity_path_175" fill="#43BC00" stroke="none" d="M176.0000101029873,362.0000075995922L185.0000101029873,362.0000075995922A9,9,0,0,0,172.5558592117015,353.6850918069906A9,9,0,0,0,169.63604907230837,368.36396863027113L176.0000101029873,362.0000075995922z"></path><path id="kity_path_176" fill="#8E8E8E" stroke="none" d="M176.00000980496407,355.000007301569c4.418,0,8,3.582,8,8h1c0,-5.523,-3.477,-10,-9,-10S167.00000980496407,357.47700730156896,167.00000980496407,363.000007301569h1C168.00000980496407,358.582007301569,171.58200980496406,355.000007301569,176.00000980496407,355.000007301569z"></path><path id="kity_path_178" fill="#EEE" stroke="none" d="M191.8120101029873,369.8960075995922l-6.75,6.75l-4.5,-4.5L182.2500101029873,370.4590075995922l2.812,2.803l5.062,-5.053L191.8120101029873,369.8960075995922z" display="none"></path><path id="kity_path_177" fill="url(#kity_linearGradient_17)" stroke="none" d="M176.00000980496407,352.000007301569C170.47700980496407,352.000007301569,166.00000980496407,356.47700730156896,166.00000980496407,362.000007301569c0,5.523,4.477,10,10,10s10,-4.477,10,-10C186.00000980496407,356.47700730156896,181.52300980496406,352.000007301569,176.00000980496407,352.000007301569zM176.00000980496407,370.000007301569c-4.418,0,-8,-3.582,-8,-8s3.582,-8,8,-8s8,3.582,8,8S180.41800980496407,370.000007301569,176.00000980496407,370.000007301569z"></path></g><g id="node_priority1" display="none"><path id="kity_path_181" fill="#006300" stroke="none" d="M166.00000980496407,365.000007301569c0,3.866,3.134,7,7,7h6c3.866,0,7,-3.134,7,-7V359.000007301569H166.00000980496407V365.000007301569z"></path><path id="kity_path_182" fill="#00AF00" stroke="none" d="M186.00000980496407,362.000007301569c0,3.866,-3.134,7,-7,7H173.00000980496407c-3.866,0,-7,-3.134,-7,-7V359.000007301569c0,-3.866,3.134,-7,7,-7h6c3.866,0,7,3.134,7,7V362.000007301569z" opacity="0.8"></path><text id="kity_text_183" text-rendering="geometricPrecision" x="175.0000097900629" y="361.5000072866678" text-anchor="middle" font-style="italic" font-size="12" fill="white" dy="4">3</text></g></g><g id="minder_node5"><path id="kity_path_82" fill="rgba(0, 0, 0, .25)" stroke="none" d="M809.5000279992819,0.9999977499246597h0a36,36,0,0,1,36,36v0a36,36,0,0,1,-36,36h0a36,36,0,0,1,-36,-36v0a36,36,0,0,1,36,-36z" display="none"></path><g id="node_expander4" style="cursor: pointer;" display="none"><path id="kity_path_60" fill="white" stroke="gray" d="M766.5000275224447,31.49999774992466A6,6,0,1,1,754.5000275224447,31.49999774992466A6,6,0,1,1,766.5000275224447,31.49999774992466"></path><path id="kity_path_61" fill="none" stroke="gray"></path></g><path id="node_outline5" fill="none" stroke="none" d="M771.5000279992819,20.49999774992466h63a5,5,0,0,1,5,5v12a5,5,0,0,1,-5,5h-63a5,5,0,0,1,-5,-5v-12a5,5,0,0,1,5,-5z" stroke-width="3"></path><g id="node_text5" fill="black"><text id="kity_text_57" text-rendering="inherit" font-size="12" dy=".8em" y="25.49999774992466" x="776.5000279992819">Subgroup</text></g></g><g id="minder_node6"><path id="kity_path_83" fill="rgba(0, 0, 0, .25)" stroke="none" d="M889.5000279992819,-26.000000700354576h0a115,115,0,0,1,115,115v0a115,115,0,0,1,-115,115h0a115,115,0,0,1,-115,-115v0a115,115,0,0,1,115,-115z" display="none"></path><g id="node_expander5" style="cursor: pointer;" display="none"><path id="kity_path_68" fill="white" stroke="gray" d="M766.5000275224447,83.49999929964542A6,6,0,1,1,754.5000275224447,83.49999929964542A6,6,0,1,1,766.5000275224447,83.49999929964542"></path><path id="kity_path_69" fill="none" stroke="gray"></path></g><path id="node_outline6" fill="none" stroke="none" d="M771.5000279992819,72.49999929964542h217a5,5,0,0,1,5,5v12a5,5,0,0,1,-5,5h-217a5,5,0,0,1,-5,-5v-12a5,5,0,0,1,5,-5z" stroke-width="3"></path><g id="node_text6" fill="black"><text id="kity_text_65" text-rendering="inherit" font-size="12" dy=".8em" y="77.49999929964542" x="776.5000279992819">Normal Subgroup and Homomorphism</text></g></g><g id="minder_node7"><path id="kity_path_84" fill="rgba(0, 0, 0, .25)" stroke="none" d="M847.0000279992819,69.00000084936619h0a72,72,0,0,1,72,72v0a72,72,0,0,1,-72,72h0a72,72,0,0,1,-72,-72v0a72,72,0,0,1,72,-72z" display="none"></path><g id="node_expander6" style="cursor: pointer;" display="none"><path id="kity_path_76" fill="white" stroke="gray" d="M766.5000275224447,135.5000008493662A6,6,0,1,1,754.5000275224447,135.5000008493662A6,6,0,1,1,766.5000275224447,135.5000008493662"></path><path id="kity_path_77" fill="none" stroke="gray"></path></g><path id="node_outline7" fill="none" stroke="none" d="M771.5000279992819,124.50000084936619h162a5,5,0,0,1,5,5v12a5,5,0,0,1,-5,5h-162a5,5,0,0,1,-5,-5v-12a5,5,0,0,1,5,-5z" stroke-width="3"></path><g id="node_text7" fill="black"><text id="kity_text_73" text-rendering="inherit" font-size="12" dy=".8em" y="129.5000008493662" x="776.5000279992819">The Isomorphism Theorems</text></g></g><g id="minder_node8"><g id="node_expander7" style="cursor: pointer;" display="none"><path id="kity_path_91" fill="white" stroke="gray" d="M766.5000275224447,187.50000239908695A6,6,0,1,1,754.5000275224447,187.50000239908695A6,6,0,1,1,766.5000275224447,187.50000239908695"></path><path id="kity_path_92" fill="none" stroke="gray" d="M756.0000275224447,187.50000239908695L765.0000275224447,187.50000239908695"></path></g><path id="node_outline8" fill="none" stroke="none" d="M771.5000279992819,176.50000239908695h89a5,5,0,0,1,5,5v12a5,5,0,0,1,-5,5h-89a5,5,0,0,1,-5,-5v-12a5,5,0,0,1,5,-5z" stroke-width="3"></path><g id="node_text8" fill="black"><text id="kity_text_88" text-rendering="inherit" font-size="12" dy=".8em" y="181.50000239908695" x="776.5000279992819">Direct Product</text></g></g><g id="minder_node10"><g id="node_expander9" style="cursor: pointer;" display="none"><path id="kity_path_107" fill="white" stroke="gray" d="M766.5000275224447,239.50000394880772A6,6,0,1,1,754.5000275224447,239.50000394880772A6,6,0,1,1,766.5000275224447,239.50000394880772"></path><path id="kity_path_108" fill="none" stroke="gray"></path></g><path id="node_outline10" fill="none" stroke="none" d="M771.5000279992819,228.50000394880772h120a5,5,0,0,1,5,5v12a5,5,0,0,1,-5,5h-120a5,5,0,0,1,-5,-5v-12a5,5,0,0,1,5,-5z" stroke-width="3"></path><g id="node_text10" fill="black"><text id="kity_text_104" text-rendering="inherit" font-size="12" dy=".8em" y="233.50000394880772" x="776.5000279992819">Group Acting on Set</text></g></g><g id="minder_node11"><g id="node_expander10" style="cursor: pointer;" display="none"><path id="kity_path_115" fill="white" stroke="gray" d="M766.5000275224447,291.5000054985285A6,6,0,1,1,754.5000275224447,291.5000054985285A6,6,0,1,1,766.5000275224447,291.5000054985285"></path><path id="kity_path_116" fill="none" stroke="gray"></path></g><path id="node_outline11" fill="none" stroke="none" d="M771.5000279992819,280.5000054985285h167a5,5,0,0,1,5,5v12a5,5,0,0,1,-5,5h-167a5,5,0,0,1,-5,-5v-12a5,5,0,0,1,5,-5z" stroke-width="3"></path><g id="node_text11" fill="black"><text id="kity_text_112" text-rendering="inherit" font-size="12" dy=".8em" y="285.5000054985285" x="776.5000279992819">The Orbit-Stabilizer Theorem</text></g></g><g id="minder_node12"><g id="node_expander11" style="cursor: pointer;" display="none"><path id="kity_path_123" fill="white" stroke="gray" d="M766.5000275224447,343.50000704824924A6,6,0,1,1,754.5000275224447,343.50000704824924A6,6,0,1,1,766.5000275224447,343.50000704824924"></path><path id="kity_path_124" fill="none" stroke="gray"></path></g><path id="node_outline12" fill="none" stroke="none" d="M771.5000279992819,332.50000704824924h125a5,5,0,0,1,5,5v12a5,5,0,0,1,-5,5h-125a5,5,0,0,1,-5,-5v-12a5,5,0,0,1,5,-5z" stroke-width="3"></path><g id="node_text12" fill="black"><text id="kity_text_120" text-rendering="inherit" font-size="12" dy=".8em" y="337.50000704824924" x="776.5000279992819">The Sylow Theorems</text></g></g><g id="minder_node13"><g id="node_expander12" style="cursor: pointer;" display="none"><path id="kity_path_131" fill="white" stroke="gray" d="M756.5000272244215,405.50000889599323A6,6,0,1,1,744.5000272244215,405.50000889599323A6,6,0,1,1,756.5000272244215,405.50000889599323"></path><path id="kity_path_132" fill="none" stroke="gray"></path></g><path id="node_outline13" fill="none" stroke="none" d="M761.5000277012587,394.50000889599323h154a5,5,0,0,1,5,5v12a5,5,0,0,1,-5,5h-154a5,5,0,0,1,-5,-5v-12a5,5,0,0,1,5,-5z" stroke-width="3"></path><g id="node_text13" fill="black"><text id="kity_text_128" text-rendering="inherit" font-size="12" dy=".8em" y="399.50000889599323" x="766.5000277012587">Ideals and Homomorphism</text></g></g><g id="minder_node14"><g id="node_expander13" style="cursor: pointer;" display="none"><path id="kity_path_139" fill="white" stroke="gray" d="M756.5000272244215,457.500010445714A6,6,0,1,1,744.5000272244215,457.500010445714A6,6,0,1,1,756.5000272244215,457.500010445714"></path><path id="kity_path_140" fill="none" stroke="gray"></path></g><path id="node_outline14" fill="none" stroke="none" d="M761.5000277012587,446.500010445714h162a5,5,0,0,1,5,5v12a5,5,0,0,1,-5,5h-162a5,5,0,0,1,-5,-5v-12a5,5,0,0,1,5,-5z" stroke-width="3"></path><g id="node_text14" fill="black"><text id="kity_text_136" text-rendering="inherit" font-size="12" dy=".8em" y="451.500010445714" x="766.5000277012587">The Isomorphism Theorems</text></g></g><g id="minder_node15"><g id="node_expander14" style="cursor: pointer;" display="none"><path id="kity_path_147" fill="white" stroke="gray" d="M756.5000272244215,509.50001199543476A6,6,0,1,1,744.5000272244215,509.50001199543476A6,6,0,1,1,756.5000272244215,509.50001199543476"></path><path id="kity_path_148" fill="none" stroke="gray"></path></g><path id="node_outline15" fill="none" stroke="none" d="M761.5000277012587,498.50001199543476h150a5,5,0,0,1,5,5v12a5,5,0,0,1,-5,5h-150a5,5,0,0,1,-5,-5v-12a5,5,0,0,1,5,-5z" stroke-width="3"></path><g id="node_text15" fill="black"><text id="kity_text_144" text-rendering="inherit" font-size="12" dy=".8em" y="503.50001199543476" x="766.5000277012587">Maximal and Prime Ideals</text></g></g><g id="minder_node16"><g id="node_expander15" style="cursor: pointer;" display="none"><path id="kity_path_155" fill="white" stroke="gray" d="M756.5000272244215,561.5000135451555A6,6,0,1,1,744.5000272244215,561.5000135451555A6,6,0,1,1,756.5000272244215,561.5000135451555"></path><path id="kity_path_156" fill="none" stroke="gray"></path></g><path id="node_outline16" fill="none" stroke="none" d="M761.5000277012587,550.5000135451555h203a5,5,0,0,1,5,5v12a5,5,0,0,1,-5,5h-203a5,5,0,0,1,-5,-5v-12a5,5,0,0,1,5,-5z" stroke-width="3"></path><g id="node_text16" fill="black"><text id="kity_text_152" text-rendering="inherit" font-size="12" dy=".8em" y="555.5000135451555" x="766.5000277012587">Unique Factorization Domain (UFD)</text></g></g><g id="minder_node17"><g id="node_expander16" style="cursor: pointer;" display="none"><path id="kity_path_163" fill="white" stroke="gray" d="M756.5000272244215,613.5000150948763A6,6,0,1,1,744.5000272244215,613.5000150948763A6,6,0,1,1,756.5000272244215,613.5000150948763"></path><path id="kity_path_164" fill="none" stroke="gray"></path></g><path id="node_outline17" fill="none" stroke="none" d="M761.5000277012587,602.5000150948763h163a5,5,0,0,1,5,5v12a5,5,0,0,1,-5,5h-163a5,5,0,0,1,-5,-5v-12a5,5,0,0,1,5,-5z" stroke-width="3"></path><g id="node_text17" fill="black"><text id="kity_text_160" text-rendering="inherit" font-size="12" dy=".8em" y="607.5000150948763" x="766.5000277012587">Principal Ideal Domain (PID)</text></g></g><g id="minder_node18"><g id="node_expander17" style="cursor: pointer;" display="none"><path id="kity_path_171" fill="white" stroke="gray" d="M756.5000272244215,665.500016644597A6,6,0,1,1,744.5000272244215,665.500016644597A6,6,0,1,1,756.5000272244215,665.500016644597"></path><path id="kity_path_172" fill="none" stroke="gray"></path></g><path id="node_outline18" fill="none" stroke="none" d="M761.5000277012587,654.500016644597h117a5,5,0,0,1,5,5v12a5,5,0,0,1,-5,5h-117a5,5,0,0,1,-5,-5v-12a5,5,0,0,1,5,-5z" stroke-width="3"></path><g id="node_text18" fill="black"><text id="kity_text_168" text-rendering="inherit" font-size="12" dy=".8em" y="659.500016644597" x="766.5000277012587">Euclid Domain (ED)</text></g></g><g id="minder_node19"><g id="node_expander18" style="cursor: pointer;" display="none"><path id="kity_path_190" fill="white" stroke="gray" d="M142.50000892579556,335.50000680983067A6,6,0,1,1,130.50000892579556,335.50000680983067A6,6,0,1,1,142.50000892579556,335.50000680983067"></path><path id="kity_path_191" fill="none" stroke="gray"></path></g><path id="node_outline19" fill="none" stroke="none" d="M25.500005766749382,324.50000680983067h100a5,5,0,0,1,5,5v12a5,5,0,0,1,-5,5h-100a5,5,0,0,1,-5,-5v-12a5,5,0,0,1,5,-5z" stroke-width="3"></path><g id="node_text19" fill="black"><text id="kity_text_187" text-rendering="inherit" font-size="12" dy=".8em" y="329.50000680983067" x="30.500005766749382">Field Extensions</text></g></g><g id="minder_node20"><g id="node_expander19" style="cursor: pointer;" display="none"><path id="kity_path_198" fill="white" stroke="gray" d="M142.50000892579556,387.50000835955143A6,6,0,1,1,130.50000892579556,387.50000835955143A6,6,0,1,1,142.50000892579556,387.50000835955143"></path><path id="kity_path_199" fill="none" stroke="gray"></path></g><path id="node_outline20" fill="none" stroke="none" d="M35.500006064772606,376.50000835955143h90a5,5,0,0,1,5,5v12a5,5,0,0,1,-5,5h-90a5,5,0,0,1,-5,-5v-12a5,5,0,0,1,5,-5z" stroke-width="3"></path><g id="node_text20" fill="black"><text id="kity_text_195" text-rendering="inherit" font-size="12" dy=".8em" y="381.50000835955143" x="40.500006064772606">Splitting Fields</text></g></g></g></g></svg>